<?xml version="1.0" standalone="no"?>
<!DOCTYPE svg PUBLIC "-//W3C//DTD SVG 20010904//EN"
 "http://www.w3.org/TR/2001/REC-SVG-20010904/DTD/svg10.dtd">
<svg version="1.0" xmlns="http://www.w3.org/2000/svg"
 width="512.000000pt" height="512.000000pt" viewBox="0 0 512.000000 512.000000"
 preserveAspectRatio="xMidYMid meet">
<metadata>
Created by potrace 1.14, written by Peter Selinger 2001-2017
</metadata>
<g transform="translate(0.000000,512.000000) scale(0.100000,-0.100000)"
fill="#000000" stroke="none">
<path d="M0 4752 l0 -369 33 -10 c157 -53 385 -134 399 -142 10 -6 34 -15 55
-20 40 -11 254 -85 413 -144 52 -19 133 -49 180 -67 47 -17 101 -38 120 -47
19 -8 69 -26 110 -38 155 -48 300 -108 300 -125 0 -6 7 -10 16 -10 8 0 13 -4
9 -10 -3 -5 -13 -6 -22 -3 -11 4 -14 3 -9 -5 4 -7 14 -12 21 -12 19 0 32 -27
36 -70 3 -37 52 -117 137 -225 4 -5 17 -26 28 -45 10 -19 24 -39 30 -45 16
-14 30 -60 15 -51 -6 4 -16 -2 -23 -14 -7 -11 -19 -20 -27 -20 -11 0 -11 -4 2
-18 10 -10 17 -33 17 -50 0 -18 5 -32 12 -32 6 0 8 -3 5 -7 -12 -11 -56 18
-50 33 3 8 1 20 -5 27 -5 6 -13 31 -17 55 -4 23 -10 40 -15 37 -10 -6 -42 30
-34 38 4 4 -2 10 -12 14 -10 4 -24 13 -30 21 -6 8 -31 18 -57 22 -40 6 -46 4
-51 -13 -3 -14 -10 -17 -25 -12 -16 5 -21 0 -29 -27 -12 -42 -67 -102 -87 -95
-11 5 -13 0 -9 -23 8 -35 -18 -66 -52 -62 -18 3 -21 -1 -17 -16 4 -16 0 -18
-26 -14 -17 2 -31 8 -31 13 0 13 -44 11 -58 -3 -9 -9 -12 -9 -12 0 0 7 10 22
22 34 14 14 18 23 10 26 -7 2 -12 10 -12 18 0 8 -5 14 -11 14 -5 0 -8 -4 -5
-9 6 -10 -22 -71 -33 -71 -3 0 -18 8 -31 17 l-25 17 22 -37 c24 -40 15 -49
-17 -17 -11 11 -23 20 -27 20 -4 0 -2 -5 5 -12 7 -7 12 -24 12 -38 0 -14 5
-31 11 -37 11 -11 49 -6 49 7 0 5 9 6 20 3 18 -5 18 -7 3 -30 -9 -13 -29 -27
-45 -30 -15 -3 -28 -8 -28 -12 0 -4 -14 -15 -31 -25 l-32 -19 7 27 c6 23 3 26
-19 26 -37 0 -51 -36 -31 -83 8 -20 11 -37 5 -37 -5 0 -9 -7 -9 -15 0 -8 -8
-19 -19 -24 -13 -7 -17 -18 -14 -35 3 -16 -2 -32 -15 -46 l-19 -21 -38 21
c-31 17 -36 18 -31 5 3 -9 0 -18 -9 -21 -22 -9 -18 -26 4 -19 10 3 27 -2 40
-12 18 -15 20 -23 13 -48 -5 -16 -7 -59 -4 -95 4 -54 3 -63 -9 -53 -8 6 -49
25 -91 42 -42 17 -96 39 -120 50 -24 11 -68 29 -98 40 -150 54 -197 72 -222
86 -14 8 -32 15 -40 15 -7 0 -46 16 -87 35 -40 19 -78 35 -84 35 -7 0 -29 9
-50 20 -20 11 -43 20 -49 20 -7 1 -31 9 -53 20 -22 11 -43 19 -47 20 -5 0 -8
-61 -8 -135 0 -97 3 -135 12 -135 16 0 126 -43 230 -91 47 -21 92 -39 98 -39
6 0 36 -11 66 -25 30 -14 59 -25 64 -25 16 0 214 -90 227 -103 8 -9 8 -27 0
-70 -9 -49 -8 -67 8 -115 19 -61 22 -111 7 -121 -38 -25 -60 -415 -34 -611 12
-97 36 -234 52 -304 16 -71 -29 -105 -80 -61 -8 7 -69 34 -135 59 -66 25 -138
55 -160 66 -22 10 -83 35 -135 55 -52 20 -104 40 -115 45 -11 5 -31 12 -45 16
-14 3 -33 13 -42 22 -17 14 -18 8 -18 -125 l0 -141 33 -13 c17 -7 37 -13 42
-13 6 -1 32 -13 58 -28 26 -16 50 -28 53 -28 6 0 123 -53 167 -76 16 -8 36
-14 46 -14 9 0 26 -7 37 -15 10 -8 35 -19 56 -25 29 -8 35 -14 31 -30 -3 -11
-8 -20 -12 -20 -4 0 -15 -15 -24 -32 -15 -29 -49 -79 -74 -113 -10 -12 -28
-57 -64 -160 -22 -61 -29 -98 -29 -157 l0 -77 -46 -31 c-33 -23 -63 -34 -112
-41 -37 -5 -88 -14 -114 -21 l-48 -12 0 -93 0 -93 2523 0 c1820 1 2517 4 2503
11 -13 8 -15 14 -7 18 17 11 4 37 -19 38 -14 1 -17 -3 -13 -15 6 -15 3 -14
-15 2 -12 11 -22 24 -22 30 0 6 -11 24 -25 40 -13 16 -22 33 -18 39 4 6 -4 8
-20 5 -35 -7 -58 8 -37 23 13 9 12 10 -3 5 -18 -6 -33 4 -98 66 -40 39 -51 65
-23 54 9 -3 12 -2 9 4 -4 6 7 16 24 23 17 7 28 16 24 20 -3 4 0 7 8 7 8 0 30
18 48 40 18 22 39 40 46 40 7 0 16 6 18 13 4 9 6 9 6 -1 1 -7 -6 -15 -14 -18
-17 -7 -18 -74 -1 -79 36 -11 86 -12 86 -3 0 6 8 16 17 23 9 7 18 26 19 41 4
71 4 70 14 54 5 -8 10 -48 10 -87 0 -59 3 -73 16 -73 8 0 12 -4 9 -10 -3 -5
-2 -10 3 -10 6 0 10 55 11 132 1 72 3 134 6 136 3 3 5 -21 5 -54 0 -32 5 -66
10 -74 7 -11 10 5 10 51 0 78 -9 131 -21 123 -5 -3 -6 10 -2 28 3 18 10 34 15
36 4 2 8 23 8 48 0 34 -3 42 -15 38 -12 -5 -15 4 -14 52 0 42 3 53 9 39 6 -13
9 15 9 80 1 68 -2 95 -9 85 -7 -10 -10 27 -10 113 0 83 4 126 10 122 6 -4 10
30 10 94 0 85 -2 99 -15 95 -17 -7 -21 -74 -5 -74 6 0 10 -15 10 -32 0 -25 -3
-29 -10 -18 -6 10 -10 -57 -11 -200 -3 -286 -4 -329 -13 -337 -4 -5 -6 34 -5
84 2 51 0 96 -4 99 -4 4 -8 1 -9 -7 -1 -8 -5 60 -8 151 l-6 165 -2 -162 c-1
-110 -6 -163 -13 -163 -8 0 -9 53 -4 185 6 135 5 185 -4 185 -6 0 -11 -8 -11
-17 -1 -13 -5 -10 -16 10 -8 15 -22 27 -30 27 -8 0 -12 5 -9 10 11 18 -5 32
-21 19 -8 -7 -28 -13 -44 -14 -38 -3 -61 -22 -53 -43 3 -9 -13 1 -36 23 -22
21 -42 35 -43 30 0 -6 -2 -14 -3 -20 -2 -5 -3 -15 -4 -21 0 -6 -8 -11 -16 -11
-10 0 -15 10 -15 29 0 20 -5 28 -17 28 -39 0 -93 22 -104 41 -13 26 6 55 26
39 9 -8 15 -8 20 0 3 5 -2 13 -12 17 -10 4 -21 11 -25 17 -5 7 -8 3 -8 -8 0
-12 -5 -16 -15 -12 -12 4 -15 -3 -15 -29 0 -25 -5 -35 -15 -35 -25 0 -28 25
-7 62 22 38 15 71 -8 43 -7 -8 -19 -15 -26 -15 -8 0 -14 -4 -14 -10 0 -5 -6
-9 -12 -7 -8 1 -13 -8 -12 -20 0 -13 -3 -23 -8 -23 -12 0 -10 48 3 55 6 4 8
13 5 21 -3 7 0 17 7 21 19 13 39 53 26 53 -6 0 -13 -9 -16 -20 -8 -28 -23 -25
-23 5 0 22 -3 24 -19 15 -28 -14 -31 -13 -31 14 0 34 26 53 50 38 37 -23 64 7
59 66 -1 15 2 36 7 47 4 11 8 36 9 57 0 20 3 34 8 31 4 -2 7 0 7 6 0 5 -6 11
-12 14 -9 3 -1 17 21 41 l35 36 -21 39 c-14 26 -18 42 -11 49 7 7 7 16 -1 29
-6 10 -11 12 -11 6 0 -18 -24 -16 -73 6 -23 10 -63 22 -89 25 -56 8 -64 22
-12 21 24 -1 46 7 69 24 44 33 44 44 1 36 -28 -6 -34 -4 -39 14 -4 16 -13 21
-40 21 -19 0 -56 3 -83 6 l-49 6 25 -21 c17 -14 20 -21 10 -21 -8 0 -22 -5
-30 -10 -13 -9 -13 -11 0 -20 23 -15 40 -12 40 6 0 13 6 15 28 9 15 -3 42 -9
60 -12 43 -7 48 -18 9 -21 -17 -2 -37 -8 -44 -14 -8 -7 -13 -7 -13 0 0 6 -13
7 -37 1 -52 -12 -56 -11 -49 6 4 12 -2 15 -28 15 -22 0 -36 -6 -40 -16 -9 -23
-8 -24 17 -25 l22 0 -22 -9 c-13 -5 -43 -9 -68 -8 -37 0 -43 3 -34 14 16 20 1
37 -17 19 -19 -19 -34 -19 -34 0 0 7 -8 18 -17 24 -14 8 -15 12 -4 25 7 9 19
16 25 16 6 0 17 9 24 20 7 11 18 20 24 20 9 0 9 -3 0 -12 -13 -13 -16 -29 -4
-27 20 3 32 -3 32 -17 0 -8 5 -12 10 -9 6 3 7 17 4 30 -3 12 -1 26 5 29 6 4
11 0 11 -8 0 -9 4 -16 9 -16 16 0 60 40 66 61 5 14 12 18 25 14 20 -6 36 10
20 20 -8 5 -7 11 1 21 9 11 9 17 -1 29 -16 20 -46 19 -54 -1 -5 -13 -9 -14
-21 -4 -8 6 -11 19 -7 28 5 16 5 16 -11 0 -9 -9 -17 -26 -17 -37 0 -12 -5 -21
-11 -21 -5 0 -15 -14 -20 -30 -6 -16 -15 -30 -20 -30 -12 0 -11 27 1 35 5 3
11 21 11 38 1 18 3 24 6 15 2 -10 9 -18 14 -18 15 0 1 45 -39 128 -21 45 -87
92 -129 92 -31 0 -33 2 -33 35 0 21 5 34 12 32 16 -3 38 44 32 69 -4 16 0 23
15 27 12 3 21 11 21 19 0 10 -3 9 -10 -2 -8 -13 -11 -11 -16 8 -8 28 -24 29
-24 1 0 -12 -4 -17 -11 -13 -7 4 -8 20 -4 43 3 20 7 56 9 81 1 25 10 63 20 84
9 22 15 45 12 51 -4 12 68 14 80 2 4 -4 16 -7 26 -7 10 0 26 -8 37 -19 12 -12
41 -21 87 -26 40 -4 89 -17 116 -31 26 -13 53 -24 60 -24 7 0 30 -9 51 -20 20
-11 48 -20 62 -20 14 0 43 -9 63 -19 21 -11 56 -22 77 -26 22 -4 58 -15 80
-25 48 -21 205 -70 227 -70 21 0 100 -45 122 -69 47 -52 46 -93 46 1250 l0
1259 -2555 0 -2555 0 0 -368z m3651 -1073 c-15 -70 -14 -75 13 -50 29 27 116
61 156 61 42 0 37 -11 -18 -37 -26 -12 -59 -33 -72 -45 l-25 -23 25 -3 c49 -5
71 -13 65 -22 -3 -6 -16 -10 -28 -10 -12 0 -29 -5 -37 -10 -13 -9 -12 -12 4
-22 32 -18 86 -82 86 -100 0 -13 8 -18 29 -18 38 0 87 -48 101 -98 27 -99 -11
-427 -50 -427 -12 0 -14 -15 -12 -77 4 -91 -18 -210 -60 -322 -38 -101 -48
-112 -48 -56 0 88 -56 170 -115 170 -7 0 -40 -50 -72 -111 -70 -135 -171 -244
-193 -209 -6 9 -10 7 -14 -8 -13 -39 -67 -82 -104 -82 -36 0 -121 41 -156 75
-12 11 -35 31 -51 45 -29 25 -100 101 -138 149 l-19 23 -34 -68 c-55 -109 -45
-216 28 -291 44 -45 31 -57 -55 -48 -72 7 -126 28 -184 72 -25 18 -31 20 -26
7 6 -15 1 -16 -33 -10 -21 3 -69 9 -107 13 -63 6 -72 4 -142 -31 -41 -20 -100
-60 -131 -89 l-57 -52 5 58 c3 43 16 80 46 139 51 98 67 184 57 313 -19 251
-96 399 -269 514 -95 63 -109 71 -128 71 -35 0 -27 20 14 31 24 7 45 14 47 15
2 2 -15 24 -38 50 -22 26 -41 51 -41 56 0 12 31 -6 55 -32 51 -57 155 -74 249
-41 46 16 50 20 74 81 29 72 101 154 145 165 50 13 97 -4 150 -53 27 -26 52
-42 54 -36 6 18 247 6 318 -16 134 -42 338 -50 405 -15 42 22 101 105 150 210
62 132 66 139 94 153 25 13 62 62 81 107 14 35 18 -8 6 -66z m-1992 -304 c38
-19 77 -66 91 -111 28 -84 -4 -233 -65 -305 -20 -25 -23 -33 -13 -49 11 -18 4
-74 -17 -122 -4 -12 -3 -18 5 -18 36 0 171 -218 248 -400 103 -244 127 -338
118 -460 -8 -114 -26 -168 -91 -275 -31 -49 -74 -127 -96 -173 -35 -72 -69
-130 -198 -332 -134 -211 -192 -287 -210 -276 -22 14 -71 115 -90 186 -29 107
-72 387 -77 510 -5 91 -3 109 13 131 108 157 104 148 93 189 -6 21 -8 45 -4
53 3 10 -20 47 -63 100 -37 46 -93 125 -123 176 -30 51 -71 118 -91 150 -53
85 -99 216 -99 283 0 81 83 270 150 339 32 34 70 53 82 41 9 -9 17 -2 32 25
24 42 102 89 121 73 9 -8 29 12 76 72 35 46 74 99 87 118 20 30 79 90 90 90 1
0 16 -7 31 -15z m206 -240 c0 -14 -11 -23 -35 -31 -37 -13 -54 -9 -30 6 8 6
11 10 6 10 -5 0 -1 9 9 20 23 25 50 22 50 -5z m-540 5 c-28 -12 -37 -12 -30 0
3 6 16 10 28 9 21 0 21 -1 2 -9z m-36 -19 c10 -7 7 -9 -12 -8 -15 1 -27 5 -27
10 0 10 22 9 39 -2z m590 -86 c7 -7 -27 -70 -52 -97 -18 -20 -22 -30 -14 -43
7 -14 3 -23 -24 -44 -52 -41 -103 -65 -81 -38 6 7 14 36 18 65 3 28 13 57 20
63 8 6 11 16 7 22 -4 6 -1 7 7 2 9 -6 11 0 6 21 -3 16 -2 36 4 44 5 8 10 12
10 8 0 -4 10 -3 23 2 19 8 65 5 76 -5z m2127 -571 c26 -33 44 -82 44 -123 0
-30 -8 -49 -36 -83 -20 -23 -40 -46 -45 -49 -5 -3 -17 -30 -28 -60 l-18 -54
-13 43 c-11 34 -11 50 -1 83 27 89 76 134 100 92 9 -17 10 -17 17 0 21 55
-118 99 -173 55 -23 -18 -14 -23 37 -20 27 2 50 1 50 -3 0 -10 -42 -69 -52
-73 -4 -2 -8 -16 -8 -30 0 -15 -4 -43 -10 -61 -8 -30 -6 -41 15 -77 13 -23 34
-44 45 -47 29 -7 25 -27 -6 -27 -48 0 -326 -90 -404 -131 -30 -16 -67 -34 -82
-41 -26 -12 -39 -38 -19 -38 11 0 70 24 148 61 232 110 711 199 855 159 21 -6
51 -23 68 -37 26 -21 30 -31 25 -52 -14 -58 -70 -88 -239 -132 -82 -21 -114
-25 -129 -18 -10 6 -15 15 -11 19 14 13 115 40 153 41 20 0 45 5 56 10 13 6
-11 8 -75 6 -83 -2 -114 -8 -245 -51 -82 -27 -159 -52 -170 -56 -11 -5 -63
-23 -115 -40 -52 -18 -124 -45 -159 -61 -35 -16 -71 -29 -80 -29 -10 0 -21 -4
-27 -9 -5 -5 -61 -26 -124 -46 -63 -21 -124 -41 -135 -45 -72 -29 -255 -60
-350 -60 -207 0 -273 54 -332 274 -29 109 -64 168 -116 194 l-39 20 23 16 c13
9 36 16 51 16 21 0 28 5 28 20 0 11 -3 20 -7 20 -28 -1 -96 -30 -136 -59 -46
-33 -91 -93 -80 -105 13 -12 32 -5 38 13 3 11 17 26 30 35 21 14 28 14 57 2
47 -20 98 -79 98 -114 0 -28 -1 -29 -47 -26 -27 2 -88 5 -136 8 -102 5 -127
19 -127 72 0 67 21 95 130 178 92 69 126 80 227 73 85 -6 167 -27 208 -53 37
-23 149 -34 202 -20 44 12 90 33 103 46 3 3 39 22 80 42 64 31 82 36 122 31
62 -7 91 1 136 40 73 63 142 100 142 76 0 -5 22 -20 49 -34 48 -24 51 -24 95
-9 56 19 111 79 155 168 18 35 42 68 54 75 33 17 115 8 133 -15z m-446 -121
c0 -9 9 -31 21 -49 24 -39 19 -42 -27 -13 -35 21 -45 54 -22 77 14 14 28 6 28
-15z m585 -63 c3 -5 1 -10 -4 -10 -6 0 -11 5 -11 10 0 6 2 10 4 10 3 0 8 -4
11 -10z m-984 -70 c25 -14 24 -24 -6 -38 -28 -13 -40 -2 -30 28 7 23 10 24 36
10z m-1956 -120 c4 -6 -5 -10 -20 -10 l-26 0 3 -82 3 -83 45 -5 c28 -3 40 -8
33 -13 -15 -10 -17 -53 -3 -62 14 -8 13 -45 -1 -45 -11 0 -9 -28 6 -64 7 -15
5 -18 -7 -13 -12 4 -14 1 -11 -13 3 -11 -8 -30 -30 -53 -20 -19 -37 -45 -39
-58 -4 -31 -24 -35 -32 -7 -3 15 0 27 9 34 20 15 19 26 -3 45 -16 14 -19 13
-36 -8 -9 -13 -14 -28 -11 -33 4 -6 -7 -15 -24 -21 -27 -10 -31 -16 -31 -47 0
-28 -3 -33 -10 -22 -5 8 -10 10 -10 4 0 -6 11 -19 23 -29 20 -15 22 -21 13
-41 -6 -13 -21 -24 -36 -26 -17 -2 -26 -10 -28 -26 -2 -13 -39 -60 -83 -105
-43 -45 -81 -87 -83 -94 -3 -7 -12 -13 -21 -13 -10 0 -15 10 -15 33 0 18 -7
56 -15 84 -30 101 -45 305 -35 467 8 125 24 237 36 255 2 2 22 -15 45 -37 34
-34 50 -42 95 -48 49 -6 58 -4 89 21 20 15 43 44 52 66 16 42 51 52 45 14 -2
-19 -2 -19 11 -2 8 9 20 17 26 17 7 0 10 4 6 9 -5 8 13 15 52 20 6 0 15 -3 18
-9z m2821 -17 c-7 -7 -26 7 -26 19 0 6 6 6 15 -2 9 -7 13 -15 11 -17z m-2753
-67 c17 -13 23 -47 19 -120 -2 -33 -4 -37 -17 -26 -13 11 -13 15 -3 21 7 5 9
9 3 9 -5 0 -11 24 -12 52 0 29 -6 54 -12 56 -12 4 -15 22 -3 22 4 0 15 -7 25
-14z m3186 -212 c-5 -15 -7 -35 -4 -45 5 -14 1 -19 -14 -19 -12 0 -21 -6 -22
-12 0 -7 -4 -2 -10 10 -5 13 -7 27 -4 32 3 4 -6 11 -20 14 -30 8 -33 26 -4 26
11 0 18 -4 15 -9 -9 -13 26 -23 38 -11 7 7 4 10 -8 10 -15 0 -16 3 -6 15 7 8
21 15 31 15 16 0 17 -4 8 -26z m-351 -8 c42 -22 65 -52 57 -75 -9 -28 -79 -67
-135 -75 -25 -4 -67 -13 -95 -21 -27 -8 -79 -21 -115 -30 -36 -9 -81 -22 -100
-30 -19 -7 -98 -37 -175 -65 -77 -29 -144 -55 -150 -60 -5 -4 -28 -13 -50 -19
-22 -7 -58 -21 -80 -31 -117 -54 -257 -79 -352 -63 -86 15 -171 59 -196 100
l-18 32 116 -6 c72 -3 137 -1 168 5 29 7 84 18 124 27 39 8 84 20 100 26 15 6
44 15 63 20 19 4 78 23 130 42 52 19 120 44 152 55 31 11 67 26 80 33 33 18
409 147 431 148 10 1 30 -5 45 -13z m192 -30 c0 -9 -14 -15 -40 -18 -45 -4
-51 3 -17 20 31 15 57 14 57 -2z m29 -82 c1 -1 0 -7 -4 -13 -10 -18 -32 -12
-38 9 -4 18 -2 20 16 14 12 -3 24 -8 26 -10z m-109 -78 c0 -19 -5 -23 -30 -23
-16 0 -30 4 -30 9 0 4 6 8 14 8 9 0 13 9 12 25 -3 21 -1 23 15 14 11 -5 19
-20 19 -33z m-70 14 c-20 -13 -33 -13 -25 0 3 6 14 10 23 10 15 0 15 -2 2 -10z
m-1626 -15 c-4 -8 -8 -15 -10 -15 -2 0 -4 7 -4 15 0 8 4 15 10 15 5 0 7 -7 4
-15z m1441 -35 c-3 -5 -10 -10 -16 -10 -5 0 -9 5 -9 10 0 6 7 10 16 10 8 0 12
-4 9 -10z m172 -7 c4 -10 14 -23 22 -30 18 -13 9 -27 -24 -37 -30 -9 -52 29
-31 53 9 10 13 21 9 24 -3 4 -1 7 6 7 6 0 15 -8 18 -17z m88 -31 c0 -20 -18
-18 -21 1 -1 10 3 16 9 14 7 -2 12 -9 12 -15z m-3140 -2 c-3 -5 -10 -10 -16
-10 -5 0 -9 5 -9 10 0 6 7 10 16 10 8 0 12 -4 9 -10z m3178 -15 c-8 -22 -22
-18 -16 5 3 11 9 17 14 15 4 -3 6 -12 2 -20z m157 10 c0 -8 -4 -15 -10 -15 -5
0 -10 7 -10 15 0 8 5 15 10 15 6 0 10 -7 10 -15z m-600 -5 c0 -5 -7 -10 -15
-10 -8 0 -15 5 -15 10 0 6 7 10 15 10 8 0 15 -4 15 -10z m407 -40 c-1 -11 -7
-20 -14 -20 -14 0 -18 22 -6 33 12 13 22 7 20 -13z m-3124 -78 c-12 -132 35
-381 101 -533 51 -117 140 -231 221 -280 32 -20 100 -26 110 -9 3 6 10 10 16
10 21 0 6 -29 -41 -82 -64 -72 -102 -80 -204 -41 -101 38 -169 108 -234 243
-80 165 -96 240 -97 457 l0 182 59 60 c33 33 63 58 67 56 4 -3 5 -31 2 -63z
m1437 38 c0 -5 -4 -10 -10 -10 -5 0 -10 5 -10 10 0 6 5 10 10 10 6 0 10 -4 10
-10z m1470 -5 c0 -9 -9 -15 -22 -14 -17 1 -19 2 -5 6 9 2 17 9 17 14 0 5 2 9
5 9 3 0 5 -7 5 -15z m166 -10 c0 -14 -6 -27 -13 -29 -8 -3 -11 5 -10 24 1 17
7 30 13 30 7 0 11 -11 10 -25z m304 -5 c0 -5 -4 -10 -10 -10 -5 0 -10 5 -10
10 0 6 5 10 10 10 6 0 10 -4 10 -10z m-1123 -86 c-30 -73 -44 -139 -26 -128
10 6 11 -38 5 -202 -7 -221 -8 -224 -50 -434 -15 -74 -32 -159 -37 -188 -6
-29 -14 -50 -19 -47 -5 3 -12 31 -16 63 -3 31 -19 107 -35 167 -76 292 -88
328 -196 558 -40 87 -71 162 -68 167 3 5 36 9 73 9 79 0 142 16 277 69 55 22
104 36 108 32 5 -4 -3 -34 -16 -66z m1213 36 c0 -5 -4 -10 -10 -10 -5 0 -10 5
-10 10 0 6 5 10 10 10 6 0 10 -4 10 -10z m-2716 -18 c-1 -7 -2 -24 -2 -38 -2
-22 -5 -24 -16 -15 -21 18 -28 -1 -22 -61 4 -38 3 -46 -3 -28 -5 14 -9 37 -10
52 -1 31 18 80 30 73 4 -3 5 5 2 16 -4 16 -2 20 8 17 8 -3 14 -10 13 -16z
m2816 8 c0 -5 -5 -10 -11 -10 -5 0 -7 5 -4 10 3 6 8 10 11 10 2 0 4 -4 4 -10z
m-546 -26 c10 -27 7 -44 -9 -44 -10 0 -15 10 -15 30 0 32 14 40 24 14z m307
-6 c10 -18 9 -20 -6 -15 -9 4 -19 7 -21 7 -2 0 -4 7 -4 15 0 22 18 18 31 -7z
m105 -25 c-7 -7 -26 7 -26 19 0 6 6 6 15 -2 9 -7 13 -15 11 -17z m374 24 c0
-2 -9 -14 -20 -27 -16 -18 -23 -21 -32 -12 -9 9 -8 12 5 12 9 0 17 7 17 15 0
8 7 15 15 15 8 0 15 -2 15 -3z m-430 -17 c0 -5 -4 -10 -10 -10 -5 0 -10 5 -10
10 0 6 5 10 10 10 6 0 10 -4 10 -10z m-2123 -6 c-3 -3 -12 -4 -19 -1 -8 3 -5
6 6 6 11 1 17 -2 13 -5z m1324 -36 c20 -18 55 -54 78 -80 l43 -47 -22 -88
c-31 -129 -70 -232 -145 -380 -56 -113 -69 -133 -89 -133 -12 0 -44 -14 -70
-31 -26 -17 -50 -29 -53 -25 -3 3 10 41 29 83 102 226 165 466 169 643 2 105
5 108 60 58z m-1486 13 c3 -5 1 -12 -5 -16 -5 -3 -10 1 -10 9 0 18 6 21 15 7z
m-335 -11 c0 -5 -4 -10 -10 -10 -5 0 -10 5 -10 10 0 6 5 10 10 10 6 0 10 -4
10 -10z m2680 0 c0 -5 -7 -10 -16 -10 -8 0 -12 5 -9 10 3 6 10 10 16 10 5 0 9
-4 9 -10z m-2110 -39 c219 -93 451 -348 622 -682 81 -159 97 -197 119 -289 24
-97 24 -100 -8 -100 -26 0 -34 12 -113 172 -47 95 -96 184 -109 198 -12 14
-47 59 -76 100 -67 96 -201 233 -285 292 -129 92 -285 145 -439 151 -35 1 -66
7 -67 12 -2 6 37 32 86 59 49 28 108 64 132 82 24 18 49 33 56 33 7 1 44 -12
82 -28z m-220 -5 c0 -3 -4 -8 -10 -11 -5 -3 -10 -1 -10 4 0 6 5 11 10 11 6 0
10 -2 10 -4z m2470 -95 c0 -14 -18 -23 -24 -12 -3 5 -15 7 -26 4 -11 -3 -20 0
-20 6 0 6 16 11 35 11 19 0 35 -4 35 -9z m209 -51 c-2 -53 -23 -70 -27 -22 -2
23 15 72 25 72 2 0 3 -22 2 -50z m-49 32 c0 -13 -12 -22 -22 -16 -10 6 -1 24
13 24 5 0 9 -4 9 -8z m140 -207 c-6 -8 -18 -11 -26 -8 -20 7 -17 24 4 21 12
-2 17 4 18 22 1 14 3 61 5 105 l3 80 3 -104 c3 -65 0 -108 -7 -116z m-1050
195 c0 -5 -4 -10 -10 -10 -5 0 -10 5 -10 10 0 6 5 10 10 10 6 0 10 -4 10 -10z
m47 -42 c10 -13 36 -36 57 -52 22 -17 34 -32 27 -34 -6 -2 -38 21 -69 52 -31
31 -52 56 -45 56 6 0 20 -10 30 -22z m963 13 c0 -6 -4 -13 -10 -16 -5 -3 -10
1 -10 9 0 9 5 16 10 16 6 0 10 -4 10 -9z m-150 -32 c0 -5 -4 -9 -10 -9 -5 0
-10 7 -10 16 0 8 5 12 10 9 6 -3 10 -10 10 -16z m297 -61 c-3 -7 -5 -2 -5 12
0 14 2 19 5 13 2 -7 2 -19 0 -25z m-757 -8 c0 -5 -2 -10 -4 -10 -3 0 -8 5 -11
10 -3 6 -1 10 4 10 6 0 11 -4 11 -10z m240 -29 c0 -6 -4 -13 -10 -16 -5 -3
-10 1 -10 9 0 9 5 16 10 16 6 0 10 -4 10 -9z m450 -6 c0 -8 -2 -15 -4 -15 -2
0 -6 7 -10 15 -3 8 -1 15 4 15 6 0 10 -7 10 -15z m-850 1 c0 -2 -7 -7 -16 -10
-8 -3 -12 -2 -9 4 6 10 25 14 25 6z m867 -83 c-2 -16 -4 -5 -4 22 0 28 2 40 4
28 2 -13 2 -35 0 -50z m-812 17 c3 -5 1 -10 -4 -10 -6 0 -11 5 -11 10 0 6 2
10 4 10 3 0 8 -4 11 -10z m715 -65 c0 -8 -9 -15 -20 -15 -20 0 -26 11 -13 23
12 13 33 7 33 -8z m-433 -142 c-3 -3 -11 -2 -17 2 -9 6 -9 10 1 16 14 8 27 -7
16 -18z m258 -13 c3 -5 2 -10 -4 -10 -5 0 -13 5 -16 10 -3 6 -2 10 4 10 5 0
13 -4 16 -10z m-335 -40 c6 -11 7 -20 2 -20 -10 0 -32 21 -32 32 0 16 19 8 30
-12z m660 1 c0 -5 -12 -11 -27 -13 -25 -3 -28 -7 -26 -38 1 -19 -1 -27 -3 -18
-5 15 -9 14 -29 -9 -20 -24 -25 -26 -39 -14 -15 13 -15 15 0 32 10 11 21 19
27 19 5 0 18 11 29 25 19 24 68 35 68 16z m-610 -51 c8 -5 12 -11 10 -14 -3
-2 -14 2 -24 10 -22 15 -10 19 14 4z m217 -26 c-12 -12 -37 5 -30 21 5 15 7
15 21 1 9 -9 13 -18 9 -22z m183 21 c0 -10 -7 -15 -17 -13 -11 2 -17 -2 -15
-11 2 -9 -4 -12 -18 -8 -15 4 -20 0 -20 -14 0 -10 -7 -19 -15 -19 -8 0 -15 5
-15 10 0 6 -6 10 -14 10 -21 0 -36 23 -26 40 7 12 12 12 35 0 23 -12 30 -12
53 2 35 21 52 22 52 3z m-340 -61 c0 -17 -12 -18 -28 -2 -18 18 -15 27 8 21
11 -3 20 -12 20 -19z m411 -2 c-28 -4 -40 6 -21 18 9 6 20 4 29 -3 12 -10 11
-13 -8 -15z m-251 -39 c0 -10 -41 0 -54 13 -27 26 -7 35 25 12 16 -12 29 -23
29 -25z m71 19 c-7 -2 -18 1 -23 6 -8 8 -4 9 13 5 13 -4 18 -8 10 -11z m226
-14 c-3 -7 -5 -2 -5 12 0 14 2 19 5 13 2 -7 2 -19 0 -25z m-64 -33 c-8 -22
-22 -18 -16 5 3 11 9 17 14 15 4 -3 6 -12 2 -20z m-203 5 c-19 -13 -30 -13
-30 0 0 6 10 10 23 10 18 0 19 -2 7 -10z m-27 -27 c-7 -2 -19 -2 -25 0 -7 3
-2 5 12 5 14 0 19 -2 13 -5z"/>
<path d="M2621 3253 c12 -21 36 -58 53 -83 17 -24 33 -49 36 -55 3 -5 26 -41
51 -80 46 -70 79 -107 79 -87 0 6 -3 12 -8 14 -4 2 -56 76 -114 166 -59 89
-110 162 -114 162 -3 0 5 -17 17 -37z"/>
<path d="M3825 3050 c3 -5 8 -10 11 -10 2 0 4 5 4 10 0 6 -5 10 -11 10 -5 0
-7 -4 -4 -10z"/>
<path d="M2485 2970 c3 -5 16 -15 28 -21 22 -12 22 -12 3 10 -19 21 -43 30
-31 11z"/>
<path d="M3870 2937 c0 -14 5 -29 10 -32 7 -4 8 3 4 22 -9 38 -14 42 -14 10z"/>
<path d="M2580 2876 c0 -2 7 -9 15 -16 13 -11 14 -10 9 4 -5 14 -24 23 -24 12z"/>
<path d="M2442 2830 c0 -14 2 -19 5 -12 2 6 2 18 0 25 -3 6 -5 1 -5 -13z"/>
<path d="M2640 2806 c0 -8 65 -91 106 -134 12 -12 34 -41 50 -64 16 -23 49
-63 73 -88 49 -50 42 -41 -89 125 -99 126 -139 172 -140 161z"/>
<path d="M2432 2750 c0 -19 2 -27 5 -17 2 9 2 25 0 35 -3 9 -5 1 -5 -18z"/>
<path d="M2429 2686 c-3 -3 -2 -38 3 -78 10 -88 59 -239 96 -299 15 -24 33
-56 41 -71 8 -15 25 -38 39 -50 17 -17 13 -6 -16 37 -85 130 -139 272 -151
397 -3 38 -9 67 -12 64z"/>
<path d="M3350 2421 c5 -11 15 -32 20 -47 6 -15 13 -24 16 -21 6 5 -33 87 -42
87 -2 0 0 -9 6 -19z"/>
<path d="M1331 2914 c0 -11 3 -14 6 -6 3 7 2 16 -1 19 -3 4 -6 -2 -5 -13z"/>
<path d="M1786 2975 c-3 -9 -2 -24 3 -32 7 -13 9 -12 13 5 7 26 -7 50 -16 27z"/>
<path d="M1107 1955 c-3 -22 -2 -44 3 -49 15 -15 18 -4 11 44 l-7 45 -7 -40z"/>
<path d="M1151 1866 c-8 -9 -28 -16 -47 -16 -34 0 -49 -19 -16 -21 9 -1 27 -3
40 -4 12 -1 25 2 28 6 3 5 16 2 30 -7 22 -15 24 -15 24 0 0 9 -6 16 -13 16 -8
0 -18 9 -23 21 -9 19 -11 20 -23 5z"/>
<path d="M1120 1790 c0 -13 20 -34 36 -37 5 -1 11 7 11 18 1 10 -2 19 -7 19
-5 0 -15 3 -24 6 -9 3 -16 1 -16 -6z"/>
<path d="M1547 3726 c-4 -10 -5 -21 -2 -24 9 -9 17 6 13 25 -3 17 -4 17 -11
-1z"/>
<path d="M1597 3623 c-4 -3 -7 -11 -7 -17 0 -6 5 -5 12 2 6 6 9 14 7 17 -3 3
-9 2 -12 -2z"/>
<path d="M1656 3615 c-3 -8 -1 -15 4 -15 6 0 10 7 10 15 0 8 -2 15 -4 15 -2 0
-6 -7 -10 -15z"/>
<path d="M1480 3579 c0 -11 5 -17 10 -14 6 3 10 13 10 21 0 8 -4 14 -10 14 -5
0 -10 -9 -10 -21z"/>
<path d="M1539 3543 c0 -24 -2 -25 -8 -8 -7 18 -9 17 -24 -12 -22 -42 -21 -52
4 -50 14 1 19 7 16 19 -3 11 2 20 14 23 20 7 26 40 9 50 -6 4 -10 -6 -11 -22z"/>
<path d="M1582 3540 c0 -14 2 -19 5 -12 2 6 2 18 0 25 -3 6 -5 1 -5 -13z"/>
<path d="M1628 3531 c-7 -12 -21 -21 -31 -21 -10 0 -15 -5 -12 -11 4 -6 -1
-17 -11 -25 -17 -13 -15 -14 21 -10 22 2 39 9 38 15 -2 5 3 8 10 6 19 -7 49
21 45 42 -5 26 -44 29 -60 4z"/>
<path d="M1340 3445 c0 -8 5 -15 10 -15 6 0 10 7 10 15 0 8 -4 15 -10 15 -5 0
-10 -7 -10 -15z"/>
<path d="M1592 3444 c3 -3 21 -7 39 -9 25 -3 30 -2 19 5 -16 10 -67 14 -58 4z"/>
<path d="M1330 3330 c-24 -8 -24 -8 7 -9 17 -1 35 4 38 9 7 11 -9 11 -45 0z"/>
<path d="M1247 3309 c-3 -12 -10 -18 -16 -14 -19 11 -50 14 -56 4 -4 -5 1 -9
9 -9 18 0 22 -16 5 -22 -5 -2 -7 -11 -4 -21 9 -21 27 -12 23 11 -3 14 8 18 60
20 62 3 67 0 63 -35 -3 -24 27 -13 33 12 4 14 13 25 21 25 8 0 15 5 15 10 0 6
-10 10 -22 9 -46 -4 -77 1 -92 16 -20 21 -33 19 -39 -6z"/>
<path d="M1140 3279 c0 -5 5 -7 10 -4 6 3 10 8 10 11 0 2 -4 4 -10 4 -5 0 -10
-5 -10 -11z"/>
<path d="M1047 3113 c6 -15 39 -18 47 -4 3 5 -7 11 -23 13 -21 3 -28 1 -24 -9z"/>
<path d="M980 3109 c0 -5 5 -7 10 -4 6 3 10 8 10 11 0 2 -4 4 -10 4 -5 0 -10
-5 -10 -11z"/>
<path d="M1115 3060 c-3 -5 -1 -10 4 -10 6 0 11 5 11 10 0 6 -2 10 -4 10 -3 0
-8 -4 -11 -10z"/>
<path d="M4093 2893 c-24 -9 -13 -23 17 -23 20 0 30 5 30 15 0 15 -22 19 -47
8z"/>
<path d="M800 2870 c0 -5 5 -10 10 -10 6 0 10 5 10 10 0 6 -4 10 -10 10 -5 0
-10 -4 -10 -10z"/>
<path d="M828 2848 c-3 -7 1 -24 9 -38 l13 -25 0 28 c0 15 0 30 1 34 1 13 -18
14 -23 1z"/>
<path d="M4210 2841 c0 -5 7 -11 15 -15 9 -3 15 0 15 9 0 8 -7 15 -15 15 -8 0
-15 -4 -15 -9z"/>
<path d="M4235 2801 c-10 -17 15 -23 31 -7 14 15 14 16 -5 16 -11 0 -22 -4
-26 -9z"/>
<path d="M4230 2761 c0 -10 19 -25 25 -20 1 2 -3 10 -11 17 -8 7 -14 8 -14 3z"/>
<path d="M905 2750 c-4 -6 -11 -8 -16 -5 -5 4 -9 1 -9 -4 0 -16 19 -13 36 4 9
8 11 15 5 15 -5 0 -13 -5 -16 -10z"/>
<path d="M925 2730 c-3 -5 1 -10 10 -10 9 0 13 5 10 10 -3 6 -8 10 -10 10 -2
0 -7 -4 -10 -10z"/>
<path d="M4140 2696 c0 -9 4 -16 9 -16 5 0 17 -7 26 -17 13 -12 23 -14 43 -7
36 13 29 29 -12 29 -18 0 -40 6 -49 14 -15 12 -17 11 -17 -3z"/>
<path d="M4010 2645 c0 -19 5 -35 10 -35 6 0 10 16 10 35 0 19 -4 35 -10 35
-5 0 -10 -16 -10 -35z"/>
<path d="M4106 2663 c-3 -3 -6 -15 -6 -25 0 -10 -4 -18 -10 -18 -5 0 -10 8
-10 18 -1 16 -1 16 -11 -1 -8 -13 -7 -22 1 -32 7 -8 10 -30 7 -50 -4 -28 -2
-33 7 -25 7 5 16 7 19 3 4 -3 7 -1 7 5 0 7 -5 12 -11 12 -13 0 -2 39 17 58 8
7 14 22 14 32 0 20 -13 33 -24 23z"/>
<path d="M4342 2650 c0 -14 2 -19 5 -12 2 6 2 18 0 25 -3 6 -5 1 -5 -13z"/>
<path d="M4260 2640 c0 -11 6 -20 14 -20 7 0 16 9 19 20 4 15 0 20 -14 20 -12
0 -19 -7 -19 -20z"/>
<path d="M4185 2620 c-4 -6 -5 -12 -4 -14 61 -41 85 -41 77 0 -4 22 -62 32
-73 14z"/>
<path d="M4310 2610 c0 -20 49 -35 64 -19 13 11 5 18 -33 29 -27 7 -31 6 -31
-10z"/>
<path d="M4826 2585 c-3 -8 -12 -15 -21 -15 -8 0 -15 -7 -15 -15 0 -25 24 -17
42 15 9 17 13 30 9 30 -5 0 -11 -7 -15 -15z"/>
<path d="M4040 2575 c0 -8 5 -15 10 -15 6 0 10 7 10 15 0 8 -4 15 -10 15 -5 0
-10 -7 -10 -15z"/>
<path d="M4311 2564 c-12 -14 -12 -17 0 -25 15 -10 31 -8 30 4 -1 4 -1 14 -1
22 0 19 -11 19 -29 -1z"/>
<path d="M4160 2544 c0 -8 5 -12 10 -9 6 3 10 10 10 16 0 5 -4 9 -10 9 -5 0
-10 -7 -10 -16z"/>
<path d="M4687 2554 c-8 -8 1 -24 14 -24 5 0 9 7 9 15 0 15 -12 20 -23 9z"/>
<path d="M5071 2544 c0 -11 3 -14 6 -6 3 7 2 16 -1 19 -3 4 -6 -2 -5 -13z"/>
<path d="M4745 2520 c4 -6 11 -8 16 -5 14 9 11 15 -7 15 -8 0 -12 -5 -9 -10z"/>
<path d="M4030 2515 c0 -2 9 -9 20 -15 16 -9 18 -8 14 5 -5 13 -34 22 -34 10z"/>
<path d="M4138 2514 c-7 -7 2 -44 11 -44 3 0 7 11 7 25 2 24 -6 32 -18 19z"/>
<path d="M4606 2513 c-12 -12 -6 -33 9 -33 8 0 15 6 15 14 0 17 -14 28 -24 19z"/>
<path d="M4670 2500 c0 -5 4 -10 9 -10 6 0 13 5 16 10 3 6 -1 10 -9 10 -9 0
-16 -4 -16 -10z"/>
<path d="M5064 2485 c-9 -19 -9 -28 2 -42 12 -16 13 -13 14 25 0 23 -1 42 -2
42 -2 0 -8 -11 -14 -25z"/>
<path d="M4231 2480 c-16 -9 -6 -30 15 -30 15 0 20 25 6 34 -4 2 -14 1 -21 -4z"/>
<path d="M4725 2480 c-4 -6 5 -10 20 -10 15 0 24 4 20 10 -3 6 -12 10 -20 10
-8 0 -17 -4 -20 -10z"/>
<path d="M4172 2448 c-18 -18 -15 -40 6 -36 9 2 18 13 20 26 4 24 -7 29 -26
10z"/>
<path d="M4282 2421 c-5 -15 -7 -34 -3 -40 10 -16 45 35 37 55 -9 22 -23 16
-34 -15z"/>
<path d="M4560 2427 c0 -18 5 -27 15 -27 13 0 14 4 4 23 -17 33 -19 33 -19 4z"/>
<path d="M4725 2401 c-40 -10 -75 -29 -75 -42 0 -6 -7 -17 -15 -25 -8 -9 -15
-29 -15 -45 0 -18 -4 -28 -10 -24 -6 3 -10 -5 -10 -19 0 -14 4 -27 9 -30 5 -4
12 -24 16 -46 5 -32 11 -40 28 -40 12 -1 33 -7 47 -15 35 -20 99 -18 142 4 22
11 42 15 50 10 32 -21 145 -6 168 22 3 3 15 11 28 18 20 11 22 19 22 90 l0 78
-64 32 c-62 30 -111 38 -151 22 -11 -5 -29 -5 -40 -1 -35 13 -99 18 -130 11z
m79 -136 c7 -20 -3 -45 -20 -45 -16 0 -37 37 -29 50 9 15 42 12 49 -5z"/>
<path d="M5081 2384 c0 -11 3 -14 6 -6 3 7 2 16 -1 19 -3 4 -6 -2 -5 -13z"/>
<path d="M4405 2268 c-4 -9 -23 -12 -61 -10 -44 3 -55 1 -52 -9 7 -20 87 -31
121 -18 30 13 29 11 21 33 -7 19 -23 21 -29 4z"/>
<path d="M4470 2260 c-8 -38 -8 -50 -1 -50 17 0 22 19 12 37 -6 10 -11 16 -11
13z"/>
<path d="M4570 2196 c0 -13 7 -29 15 -36 8 -7 15 -24 15 -38 0 -17 3 -23 10
-16 6 6 4 28 -6 62 -16 54 -34 69 -34 28z"/>
<path d="M4480 2190 c0 -5 5 -10 11 -10 5 0 7 5 4 10 -3 6 -8 10 -11 10 -2 0
-4 -4 -4 -10z"/>
<path d="M4551 2114 c0 -11 3 -14 6 -6 3 7 2 16 -1 19 -3 4 -6 -2 -5 -13z"/>
<path d="M4491 2094 c0 -11 3 -14 6 -6 3 7 2 16 -1 19 -3 4 -6 -2 -5 -13z"/>
<path d="M5081 1882 c-6 -12 -5 -25 5 -42 13 -24 13 -24 14 18 0 46 -4 52 -19
24z"/>
<path d="M4883 1875 c-7 -20 2 -29 21 -22 9 4 13 13 10 22 -8 19 -23 19 -31 0z"/>
<path d="M4950 1880 c-12 -7 -12 -12 -3 -21 10 -10 14 -9 19 5 8 22 2 27 -16
16z"/>
<path d="M5021 1874 c0 -11 3 -14 6 -6 3 7 2 16 -1 19 -3 4 -6 -2 -5 -13z"/>
<path d="M5051 1854 c0 -11 3 -14 6 -6 3 7 2 16 -1 19 -3 4 -6 -2 -5 -13z"/>
<path d="M4732 1834 c9 -9 21 -13 27 -9 16 10 3 25 -22 25 -20 0 -20 -1 -5
-16z"/>
<path d="M4535 1780 c-4 -14 -3 -25 5 -30 8 -5 9 -10 1 -14 -6 -4 -8 -24 -5
-49 3 -23 5 -54 5 -69 0 -29 12 -43 29 -33 8 5 7 12 -1 22 -10 11 -10 16 0 22
14 9 8 75 -14 137 -12 35 -13 36 -20 14z"/>
<path d="M4687 1793 c-15 -14 -6 -33 16 -33 23 0 47 17 47 32 0 10 -54 11 -63
1z"/>
<path d="M4776 1791 c-3 -5 0 -11 8 -14 15 -6 26 1 26 15 0 11 -27 10 -34 -1z"/>
<path d="M4987 1787 c-3 -8 -21 -14 -42 -15 -48 -2 -55 -8 -55 -43 0 -21 5
-29 18 -29 9 0 26 -7 36 -15 16 -12 17 -17 6 -30 -7 -9 -9 -22 -5 -32 5 -10 7
-24 6 -32 -2 -9 4 -12 18 -8 12 3 21 1 21 -4 0 -5 5 -9 10 -9 6 0 10 12 10 26
0 19 -4 25 -14 21 -9 -4 -17 2 -21 13 -8 25 4 48 16 29 13 -22 18 -7 20 59 2
60 -12 100 -24 69z m5 -51 c8 -40 -5 -49 -35 -26 -36 28 -35 50 2 50 22 0 30
-5 33 -24z"/>
<path d="M4811 1741 c-8 -5 -10 -14 -7 -20 8 -13 46 -15 46 -2 0 16 -25 30
-39 22z"/>
<path d="M5040 1720 c0 -5 5 -10 10 -10 6 0 10 5 10 10 0 6 -4 10 -10 10 -5 0
-10 -4 -10 -10z"/>
<path d="M5044 1648 c-4 -6 1 -17 12 -25 15 -11 19 -11 27 3 5 8 6 18 3 22
-11 11 -36 11 -42 0z"/>
<path d="M4605 1600 c-4 -22 -11 -42 -16 -46 -14 -8 -11 -34 5 -34 8 0 17 -6
19 -12 4 -10 6 -10 6 0 1 6 7 12 15 12 11 0 12 8 4 42 -5 24 -7 51 -5 60 3 11
0 18 -8 18 -8 0 -16 -17 -20 -40z"/>
<path d="M4770 1585 c0 -13 -6 -16 -25 -11 -29 7 -35 -16 -10 -41 14 -13 18
-13 41 2 16 10 24 24 22 37 -4 26 -28 37 -28 13z"/>
<path d="M4860 1570 c-13 -8 -12 -10 3 -10 9 0 17 5 17 10 0 12 -1 12 -20 0z"/>
<path d="M5092 1560 c0 -14 2 -19 5 -12 2 6 2 18 0 25 -3 6 -5 1 -5 -13z"/>
<path d="M4686 1535 c-3 -8 -1 -15 3 -15 5 0 11 7 15 15 3 8 1 15 -3 15 -5 0
-11 -7 -15 -15z"/>
<path d="M4907 1519 c7 -7 15 -10 18 -7 3 3 -2 9 -12 12 -14 6 -15 5 -6 -5z"/>
<path d="M4990 1479 c0 -11 4 -18 10 -14 5 3 7 12 3 20 -7 21 -13 19 -13 -6z"/>
<path d="M4827 1484 c-8 -8 1 -24 14 -24 5 0 9 7 9 15 0 15 -12 20 -23 9z"/>
<path d="M4700 1471 c0 -17 12 -41 20 -41 15 0 18 39 3 44 -20 8 -23 8 -23 -3z"/>
<path d="M4760 1471 c0 -13 29 -41 41 -41 6 0 2 11 -8 25 -19 25 -33 32 -33
16z"/>
<path d="M4910 1441 c0 -17 27 -37 37 -27 7 7 -17 46 -27 46 -6 0 -10 -9 -10
-19z"/>
<path d="M5092 1090 c0 -19 2 -27 5 -17 2 9 2 25 0 35 -3 9 -5 1 -5 -18z"/>
<path d="M5042 1060 c0 -19 2 -27 5 -17 2 9 2 25 0 35 -3 9 -5 1 -5 -18z"/>
<path d="M4854 399 c-3 -6 -1 -16 5 -22 8 -8 11 -5 11 11 0 24 -5 28 -16 11z"/>
<path d="M4783 348 c-24 -12 -29 -23 -14 -32 5 -3 11 1 15 9 3 8 12 15 21 15
8 0 15 5 15 10 0 12 -8 12 -37 -2z"/>
<path d="M4820 299 c0 -5 5 -7 10 -4 6 3 10 8 10 11 0 2 -4 4 -10 4 -5 0 -10
-5 -10 -11z"/>
<path d="M0 291 c0 -10 149 -25 194 -19 16 1 31 8 33 13 2 6 -41 11 -112 12
-63 1 -115 -2 -115 -6z"/>
<path d="M4890 240 c-20 -16 -22 -20 -7 -20 9 0 17 5 17 10 0 6 6 10 14 10 8
0 18 5 21 10 11 17 -19 11 -45 -10z"/>
<path d="M5050 199 c0 -34 4 -48 11 -43 6 3 9 24 7 45 -2 21 1 41 7 43 5 2 2
5 -7 5 -15 1 -18 -8 -18 -50z"/>
<path d="M4944 208 c-4 -7 -3 -8 4 -4 8 5 12 0 12 -13 0 -12 5 -21 10 -21 6 0
10 11 10 25 0 26 -23 35 -36 13z"/>
<path d="M4995 209 c-4 -6 -3 -15 3 -21 6 -6 11 -4 15 6 7 18 -9 31 -18 15z"/>
<path d="M5000 155 c0 -8 5 -15 10 -15 6 0 10 7 10 15 0 8 -4 15 -10 15 -5 0
-10 -7 -10 -15z"/>
<path d="M5052 110 c0 -19 2 -27 5 -17 2 9 2 25 0 35 -3 9 -5 1 -5 -18z"/>
<path d="M5080 29 c0 -5 5 -7 10 -4 6 3 10 8 10 11 0 2 -4 4 -10 4 -5 0 -10
-5 -10 -11z"/>
</g>
</svg>
